<svg width="24" height="24" viewBox="0 0 24 24" fill="none" xmlns="http://www.w3.org/2000/svg">
    <path fill-rule="evenodd" clip-rule="evenodd" d="M12.6971 0.601806L16.214 7.56931L22.9828 8.23989C23.3119
		8.26723 23.595 8.48348 23.7079 8.79375C23.8208 9.10402 23.7429 9.45163 23.5084 9.68405L17.9377 15.2053L20.0031
		22.7078C20.0894 23.0328 19.977 23.3783 19.716 23.5903C19.4549 23.8024 19.0938 23.8416 18.7933 23.6905L11.9309
		20.2924L5.07796 23.6863C4.77749 23.8374 4.41634 23.7982 4.15529 23.5861C3.89425 23.3741 3.78187 23.0286 3.86819
		22.7036L5.93353 15.2011L0.358684 9.67984C0.124171 9.44742 0.04628 9.09982 0.159188 8.78955C0.272096 8.47927
		0.555174 8.26303 0.884216 8.23568L7.65307 7.5651L11.1647 0.601806C11.3119 0.314219 11.6078 0.133301 11.9309
		0.133301C12.254 0.133301 12.5499 0.314219 12.6971 0.601806Z" fill="#FFCD4E"/>
</svg>